<?xml version="1.0" encoding="UTF-8"?> <svg xmlns="http://www.w3.org/2000/svg" width="180" height="64" viewBox="0 0 180 64" fill="none"> <path opacity="0.61" d="M87.19 31.732H79.071V39H77.139V22.946H79.071V30.03H87.19V22.946H89.122V39H87.19V31.732ZM100.531 27.132H102.348L97.0347 41.76C96.8967 42.1127 96.7587 42.404 96.6207 42.634C96.4827 42.8793 96.3141 43.071 96.1147 43.209C95.9154 43.347 95.6624 43.4467 95.3557 43.508C95.0644 43.5693 94.7041 43.6 94.2747 43.6H93.3317V41.99H95.1947L96.0917 39.46L91.6527 27.132H93.4927L96.3447 35.205L96.8967 37.137H97.0117L97.6557 35.205L100.531 27.132ZM104.694 27.132H106.534V29.064H106.626C106.933 28.3127 107.378 27.7607 107.96 27.408C108.558 27.04 109.271 26.856 110.099 26.856C110.835 26.856 111.502 27.0017 112.1 27.293C112.698 27.5843 113.204 27.9983 113.618 28.535C114.048 29.0717 114.37 29.7233 114.584 30.49C114.814 31.2567 114.929 32.1153 114.929 33.066C114.929 34.0167 114.814 34.8753 114.584 35.642C114.37 36.4087 114.048 37.0603 113.618 37.597C113.204 38.1337 112.698 38.5477 112.1 38.839C111.502 39.1303 110.835 39.276 110.099 39.276C108.489 39.276 107.332 38.54 106.626 37.068H106.534V43.6H104.694V27.132ZM109.593 37.62C110.636 37.62 111.456 37.298 112.054 36.654C112.652 35.9947 112.951 35.136 112.951 34.078V32.054C112.951 30.996 112.652 30.145 112.054 29.501C111.456 28.8417 110.636 28.512 109.593 28.512C109.179 28.512 108.781 28.5733 108.397 28.696C108.029 28.8033 107.707 28.9567 107.431 29.156C107.155 29.3553 106.933 29.6007 106.764 29.892C106.611 30.168 106.534 30.467 106.534 30.789V35.205C106.534 35.5883 106.611 35.9333 106.764 36.24C106.933 36.5313 107.155 36.7843 107.431 36.999C107.707 37.1983 108.029 37.3517 108.397 37.459C108.781 37.5663 109.179 37.62 109.593 37.62ZM122.498 39.276C121.685 39.276 120.949 39.1303 120.29 38.839C119.646 38.5477 119.086 38.1337 118.611 37.597C118.151 37.045 117.791 36.3933 117.53 35.642C117.285 34.8753 117.162 34.0167 117.162 33.066C117.162 32.1307 117.285 31.2797 117.53 30.513C117.791 29.7463 118.151 29.0947 118.611 28.558C119.086 28.006 119.646 27.5843 120.29 27.293C120.949 27.0017 121.685 26.856 122.498 26.856C123.295 26.856 124.008 27.0017 124.637 27.293C125.266 27.5843 125.802 27.9907 126.247 28.512C126.692 29.018 127.029 29.6237 127.259 30.329C127.504 31.0343 127.627 31.8087 127.627 32.652V33.526H119.094V34.078C119.094 34.584 119.171 35.0593 119.324 35.504C119.493 35.9333 119.723 36.309 120.014 36.631C120.321 36.953 120.689 37.206 121.118 37.39C121.563 37.574 122.061 37.666 122.613 37.666C123.364 37.666 124.016 37.4897 124.568 37.137C125.135 36.7843 125.572 36.2783 125.879 35.619L127.19 36.562C126.807 37.3747 126.209 38.034 125.396 38.54C124.583 39.0307 123.617 39.276 122.498 39.276ZM122.498 28.397C121.992 28.397 121.532 28.489 121.118 28.673C120.704 28.8417 120.344 29.087 120.037 29.409C119.746 29.731 119.516 30.1143 119.347 30.559C119.178 30.9883 119.094 31.4637 119.094 31.985V32.146H125.649V31.893C125.649 30.835 125.358 29.9917 124.775 29.363C124.208 28.719 123.449 28.397 122.498 28.397ZM130.659 39V27.132H132.499V29.317H132.614C132.829 28.7497 133.212 28.2437 133.764 27.799C134.316 27.3543 135.075 27.132 136.041 27.132H136.754V28.972H135.673C134.676 28.972 133.894 29.1637 133.327 29.547C132.775 29.915 132.499 30.3827 132.499 30.95V39H130.659ZM142.669 39.276C141.565 39.276 140.638 39.069 139.886 38.655C139.15 38.2257 138.514 37.6583 137.977 36.953L139.288 35.895C139.748 36.4777 140.262 36.93 140.829 37.252C141.397 37.5587 142.056 37.712 142.807 37.712C143.589 37.712 144.195 37.5433 144.624 37.206C145.069 36.8687 145.291 36.3933 145.291 35.78C145.291 35.32 145.138 34.929 144.831 34.607C144.54 34.2697 144.003 34.0397 143.221 33.917L142.278 33.779C141.726 33.7023 141.22 33.5873 140.76 33.434C140.3 33.2653 139.894 33.0507 139.541 32.79C139.204 32.514 138.936 32.1767 138.736 31.778C138.552 31.3793 138.46 30.904 138.46 30.352C138.46 29.7693 138.568 29.2633 138.782 28.834C138.997 28.3893 139.288 28.0213 139.656 27.73C140.04 27.4387 140.492 27.224 141.013 27.086C141.535 26.9327 142.094 26.856 142.692 26.856C143.658 26.856 144.463 27.0247 145.107 27.362C145.767 27.6993 146.342 28.167 146.832 28.765L145.613 29.869C145.353 29.501 144.969 29.1713 144.463 28.88C143.957 28.5733 143.321 28.42 142.554 28.42C141.788 28.42 141.205 28.5887 140.806 28.926C140.423 29.248 140.231 29.6927 140.231 30.26C140.231 30.8427 140.423 31.2643 140.806 31.525C141.205 31.7857 141.772 31.9773 142.508 32.1L143.428 32.238C144.747 32.4373 145.682 32.8207 146.234 33.388C146.786 33.94 147.062 34.6683 147.062 35.573C147.062 36.723 146.671 37.6277 145.889 38.287C145.107 38.9463 144.034 39.276 142.669 39.276ZM151.232 24.349C150.834 24.349 150.542 24.257 150.358 24.073C150.19 23.8737 150.105 23.6207 150.105 23.314V23.015C150.105 22.7083 150.19 22.463 150.358 22.279C150.542 22.0797 150.834 21.98 151.232 21.98C151.631 21.98 151.915 22.0797 152.083 22.279C152.267 22.463 152.359 22.7083 152.359 23.015V23.314C152.359 23.6207 152.267 23.8737 152.083 24.073C151.915 24.257 151.631 24.349 151.232 24.349ZM150.312 27.132H152.152V39H150.312V27.132ZM166.067 40.311C166.067 41.5377 165.584 42.4347 164.618 43.002C163.668 43.5847 162.234 43.876 160.317 43.876C158.462 43.876 157.128 43.623 156.315 43.117C155.503 42.611 155.096 41.8903 155.096 40.955C155.096 40.311 155.265 39.805 155.602 39.437C155.94 39.0843 156.4 38.8237 156.982 38.655V38.402C156.277 38.0647 155.924 37.5127 155.924 36.746C155.924 36.148 156.116 35.6957 156.499 35.389C156.883 35.067 157.373 34.8293 157.971 34.676V34.584C157.266 34.2467 156.714 33.7637 156.315 33.135C155.932 32.5063 155.74 31.778 155.74 30.95C155.74 30.352 155.848 29.8 156.062 29.294C156.277 28.788 156.576 28.3587 156.959 28.006C157.358 27.638 157.826 27.3543 158.362 27.155C158.914 26.9557 159.528 26.856 160.202 26.856C161.046 26.856 161.797 27.0093 162.456 27.316V27.109C162.456 26.649 162.564 26.2733 162.778 25.982C162.993 25.6753 163.346 25.522 163.836 25.522H165.607V27.132H163.353V27.891C163.783 28.259 164.112 28.7037 164.342 29.225C164.588 29.731 164.71 30.306 164.71 30.95C164.71 31.548 164.603 32.1 164.388 32.606C164.174 33.112 163.867 33.549 163.468 33.917C163.085 34.2697 162.617 34.5457 162.065 34.745C161.513 34.9443 160.9 35.044 160.225 35.044C159.842 35.044 159.459 35.0057 159.075 34.929C158.677 35.0363 158.316 35.1973 157.994 35.412C157.672 35.6113 157.511 35.895 157.511 36.263C157.511 36.6157 157.68 36.8533 158.017 36.976C158.355 37.0987 158.792 37.16 159.328 37.16H161.858C163.33 37.16 164.396 37.4437 165.055 38.011C165.73 38.563 166.067 39.3297 166.067 40.311ZM164.342 40.449C164.342 39.9737 164.158 39.5903 163.79 39.299C163.438 39.023 162.801 38.885 161.881 38.885H157.925C157.189 39.2223 156.821 39.759 156.821 40.495C156.821 41.0163 157.013 41.461 157.396 41.829C157.795 42.197 158.462 42.381 159.397 42.381H161.099C162.127 42.381 162.924 42.22 163.491 41.898C164.059 41.576 164.342 41.093 164.342 40.449ZM160.225 33.572C161.007 33.572 161.628 33.388 162.088 33.02C162.548 32.6367 162.778 32.054 162.778 31.272V30.628C162.778 29.846 162.548 29.271 162.088 28.903C161.628 28.5197 161.007 28.328 160.225 28.328C159.443 28.328 158.822 28.5197 158.362 28.903C157.902 29.271 157.672 29.846 157.672 30.628V31.272C157.672 32.054 157.902 32.6367 158.362 33.02C158.822 33.388 159.443 33.572 160.225 33.572ZM168.214 39V27.132H170.054V29.064H170.146C170.437 28.3893 170.843 27.8527 171.365 27.454C171.901 27.0553 172.614 26.856 173.504 26.856C174.73 26.856 175.696 27.2547 176.402 28.052C177.122 28.834 177.483 29.9457 177.483 31.387V39H175.643V31.709C175.643 29.5777 174.746 28.512 172.952 28.512C172.584 28.512 172.223 28.558 171.871 28.65C171.533 28.742 171.227 28.88 170.951 29.064C170.675 29.248 170.452 29.4857 170.284 29.777C170.13 30.053 170.054 30.3827 170.054 30.766V39H168.214Z" fill="white"></path> <path fill-rule="evenodd" clip-rule="evenodd" d="M21.976 22.8209L18.4297 19.6918L19.5338 18.4404L23.0801 21.5695L21.976 22.8209Z" fill="white"></path> <path fill-rule="evenodd" clip-rule="evenodd" d="M41.8599 40.7611L45.4063 43.8902L44.3021 45.1416L40.7558 42.0125L41.8599 40.7611Z" fill="white"></path> <path fill-rule="evenodd" clip-rule="evenodd" d="M41.8599 22.8209L45.4062 19.6918L44.3021 18.4404L40.7558 21.5695L41.8599 22.8209Z" fill="white"></path> <path fill-rule="evenodd" clip-rule="evenodd" d="M21.976 40.7611L18.4297 43.8902L19.5338 45.1416L23.0801 42.0125L21.976 40.7611Z" fill="white"></path> <path fill-rule="evenodd" clip-rule="evenodd" d="M32.6626 7.19074L29.9585 9.44413C29.4829 9.84047 29.2079 10.4276 29.2079 11.0467V19.0661H27.5391V11.0467C27.5391 9.93231 28.034 8.8755 28.8901 8.16209L31.5942 5.90869L32.6626 7.19074Z" fill="white"></path> <path fill-rule="evenodd" clip-rule="evenodd" d="M30.7593 56.6003L33.4634 54.3469C33.939 53.9505 34.214 53.3634 34.214 52.7443L34.214 44.7249L35.8828 44.7249L35.8828 52.7443C35.8828 53.8587 35.3878 54.9155 34.5317 55.6289L31.8277 57.8823L30.7593 56.6003Z" fill="white"></path> <path fill-rule="evenodd" clip-rule="evenodd" d="M56.5226 31.2564L54.2692 33.9604C53.8729 34.436 53.2858 34.711 52.6667 34.711L44.6473 34.711L44.6473 36.3799L52.6667 36.3799C53.7811 36.3799 54.8379 35.8849 55.5513 35.0288L57.8047 32.3247L56.5226 31.2564Z" fill="white"></path> <path fill-rule="evenodd" clip-rule="evenodd" d="M6.47736 33.1597L8.73075 30.4556C9.12709 29.98 9.71421 29.705 10.3333 29.705L18.3527 29.705L18.3527 28.0361L10.3333 28.0361C9.21893 28.0361 8.16212 28.5311 7.44871 29.3872L5.19531 32.0913L6.47736 33.1597Z" fill="white"></path> <path fill-rule="evenodd" clip-rule="evenodd" d="M40.909 23.3061C39.6156 21.9036 38.0206 20.8174 36.2478 20.1274C35.9257 20.002 35.7476 19.6492 35.8567 19.3212C35.9658 18.9933 36.3207 18.8145 36.6434 18.9384C38.6169 19.6962 40.3922 20.8994 41.8291 22.4575C43.4077 24.1692 44.5263 26.2533 45.0805 28.5149C45.6346 30.7764 45.6061 33.1416 44.9977 35.3891C44.3892 37.6367 43.2207 39.6932 41.6013 41.3664C39.982 43.0396 37.9648 44.2747 35.7383 44.9563C33.5118 45.6379 31.1489 45.7437 28.8704 45.2638C26.5919 44.7839 24.4724 43.734 22.71 42.2122C21.1057 40.827 19.8451 39.092 19.0232 37.1443C18.8889 36.8259 19.0559 36.4653 19.3801 36.3456C19.7044 36.2258 20.0628 36.3923 20.1986 36.7101C20.9462 38.4594 22.084 40.018 23.528 41.2649C25.1302 42.6483 27.057 43.6028 29.1284 44.0391C31.1997 44.4753 33.3479 44.3792 35.3719 43.7595C37.396 43.1399 39.2298 42.017 40.7019 40.4959C42.1741 38.9749 43.2364 37.1053 43.7895 35.0621C44.3426 33.0188 44.3685 30.8687 43.8648 28.8127C43.361 26.7568 42.3441 24.8621 40.909 23.3061Z" fill="white"></path> <path fill-rule="evenodd" clip-rule="evenodd" d="M36.5666 19.1326C36.3608 19.0535 36.1262 19.1654 36.0526 19.3865C35.9807 19.6027 36.0967 19.8449 36.3214 19.9324C38.1238 20.6339 39.7454 21.7382 41.0603 23.1641C42.5193 24.7461 43.5532 26.6723 44.0654 28.7625C44.5775 30.8527 44.5512 33.0387 43.9888 35.116C43.4265 37.1933 42.3465 39.094 40.8498 40.6404C39.3532 42.1869 37.4887 43.3284 35.431 43.9584C33.3732 44.5884 31.1892 44.6862 29.0833 44.2426C26.9775 43.7991 25.0185 42.8287 23.3896 41.4222C21.9215 40.1545 20.7648 38.57 20.0048 36.7915C19.91 36.5697 19.6642 36.4617 19.4504 36.5407C19.2318 36.6214 19.1277 36.8596 19.2134 37.0627C20.0228 38.9808 21.2643 40.6895 22.8443 42.0538C24.58 43.5525 26.6674 44.5865 28.9114 45.0591C31.1553 45.5318 33.4825 45.4276 35.6752 44.7563C37.8679 44.085 39.8546 42.8686 41.4494 41.2207C43.0442 39.5729 44.195 37.5476 44.7943 35.3341C45.3935 33.1205 45.4216 30.7912 44.8758 28.5639C44.3301 26.3366 43.2284 24.2841 41.6737 22.5984C40.2586 21.0638 38.5102 19.8789 36.5666 19.1326ZM35.6567 19.2548C35.8014 18.82 36.2766 18.5743 36.7161 18.7431C38.7195 19.5123 40.5217 20.7338 41.9804 22.3155C43.5829 24.0531 44.7185 26.1688 45.281 28.4646C45.8436 30.7605 45.8147 33.1615 45.197 35.4431C44.5793 37.7247 43.3931 39.8124 41.7492 41.5109C40.1053 43.2094 38.0575 44.4633 35.7973 45.1552C33.5371 45.8471 31.1384 45.9545 28.8254 45.4674C26.5124 44.9802 24.3607 43.9144 22.5716 42.3696C20.9431 40.9633 19.6633 39.202 18.829 37.2249C18.646 36.7911 18.876 36.3081 19.3058 36.1493C19.7405 35.9887 20.2116 36.2137 20.3884 36.6275C21.1236 38.3477 22.2423 39.8803 23.6623 41.1064C25.2378 42.4668 27.1325 43.4054 29.1693 43.8344C31.2062 44.2634 33.3185 44.1688 35.3088 43.5595C37.2992 42.9502 39.1024 41.846 40.55 40.3503C41.9976 38.8546 43.0422 37.0162 43.5861 35.007C44.13 32.9978 44.1555 30.8835 43.6601 28.8618C43.1648 26.8401 42.1648 24.977 40.7536 23.4469C39.4818 22.0678 37.9134 20.9997 36.1701 20.3212C35.7507 20.1579 35.5105 19.6945 35.6567 19.2548Z" fill="white"></path> <path fill-rule="evenodd" clip-rule="evenodd" d="M33.7981 18.8159C33.7431 19.1572 33.422 19.3876 33.0785 19.3498C31.3208 19.1565 29.5396 19.3375 27.8529 19.8838C25.9675 20.4945 24.254 21.5442 22.8535 22.9465C21.453 24.3488 20.4056 26.0637 19.7973 27.9499C19.2532 29.6373 19.0745 31.4188 19.2702 33.1762C19.3084 33.5197 19.0784 33.841 18.7372 33.8964C18.3961 33.9518 18.0731 33.7202 18.0333 33.3769C17.8068 31.4236 18.0011 29.4419 18.6061 27.5658C19.2751 25.4909 20.4274 23.6046 21.9679 22.062C23.5084 20.5195 25.3933 19.3648 27.4673 18.6931C29.3425 18.0857 31.324 17.8888 33.2776 18.1127C33.621 18.1521 33.853 18.4747 33.7981 18.8159Z" fill="white"></path> <path fill-rule="evenodd" clip-rule="evenodd" d="M27.4051 18.4946C29.3088 17.878 31.3203 17.6781 33.3034 17.9054C33.7712 17.959 34.0789 18.3967 34.0061 18.849C33.9325 19.3065 33.5052 19.6064 33.0578 19.5572C31.3294 19.367 29.5779 19.545 27.9193 20.0822C26.0653 20.6827 24.3804 21.7149 23.0032 23.0939C21.6261 24.4728 20.5961 26.1591 19.998 28.0139C19.4629 29.6732 19.2872 31.4249 19.4796 33.153C19.5294 33.6004 19.2301 34.0281 18.7728 34.1023C18.3205 34.1757 17.8824 33.8685 17.8282 33.4008C17.5983 31.418 17.7955 29.4062 18.4097 27.5017C19.0889 25.3954 20.2585 23.4805 21.8224 21.9146C23.3863 20.3487 25.2997 19.1765 27.4051 18.4946ZM33.2559 18.3199C31.332 18.0994 29.3805 18.2933 27.5336 18.8915C25.4911 19.5531 23.6348 20.6902 22.1176 22.2094C20.6004 23.7286 19.4657 25.5863 18.8067 27.6298C18.211 29.4774 18.0196 31.4291 18.2426 33.3528C18.268 33.5718 18.4759 33.7278 18.7059 33.6905C18.9309 33.654 19.0917 33.4389 19.065 33.1992C18.866 31.4125 19.0477 29.6014 19.6009 27.8858C20.2193 25.9682 21.2842 24.2247 22.708 22.799C24.1319 21.3734 25.8739 20.3062 27.7908 19.6853C29.5056 19.1299 31.3165 18.9458 33.1034 19.1424C33.3431 19.1688 33.558 19.0077 33.5942 18.7827C33.6312 18.5527 33.4749 18.345 33.2559 18.3199Z" fill="white"></path> <path fill-rule="evenodd" clip-rule="evenodd" d="M16.8979 18.8569C17.9348 18.8569 18.7753 18.0163 18.7753 16.9794C18.7753 15.9425 17.9348 15.102 16.8979 15.102C15.861 15.102 15.0204 15.9425 15.0204 16.9794C15.0204 18.0163 15.861 18.8569 16.8979 18.8569ZM16.8979 20.5257C18.8564 20.5257 20.4442 18.938 20.4442 16.9794C20.4442 15.0208 18.8564 13.4331 16.8979 13.4331C14.9393 13.4331 13.3516 15.0208 13.3516 16.9794C13.3516 18.938 14.9393 20.5257 16.8979 20.5257Z" fill="white"></path> <path d="M17.9376 16.98C17.9376 17.5561 17.4706 18.0231 16.8946 18.0231C16.3185 18.0231 15.8516 17.5561 15.8516 16.98C15.8516 16.404 16.3185 15.937 16.8946 15.937C17.4706 15.937 17.9376 16.404 17.9376 16.98Z" fill="white"></path> <path d="M48.3986 46.6021C48.3986 47.1782 47.9316 47.6451 47.3555 47.6451C46.7795 47.6451 46.3125 47.1782 46.3125 46.6021C46.3125 46.0261 46.7795 45.5591 47.3555 45.5591C47.9316 45.5591 48.3986 46.0261 48.3986 46.6021Z" fill="white"></path> <path fill-rule="evenodd" clip-rule="evenodd" d="M16.8979 48.4799C17.9348 48.4799 18.7753 47.6393 18.7753 46.6025C18.7753 45.5656 17.9348 44.725 16.8979 44.725C15.861 44.725 15.0204 45.5656 15.0204 46.6025C15.0204 47.6393 15.861 48.4799 16.8979 48.4799ZM16.8979 50.1488C18.8564 50.1488 20.4442 48.561 20.4442 46.6025C20.4442 44.6439 18.8564 43.0562 16.8979 43.0562C14.9393 43.0562 13.3516 44.6439 13.3516 46.6025C13.3516 48.561 14.9393 50.1488 16.8979 50.1488Z" fill="white"></path> <path fill-rule="evenodd" clip-rule="evenodd" d="M47.351 18.8569C48.3879 18.8569 49.2284 18.0163 49.2284 16.9794C49.2284 15.9425 48.3879 15.102 47.351 15.102C46.3141 15.102 45.4735 15.9425 45.4735 16.9794C45.4735 18.0163 46.3141 18.8569 47.351 18.8569ZM47.351 20.5257C49.3096 20.5257 50.8973 18.938 50.8973 16.9794C50.8973 15.0208 49.3096 13.4331 47.351 13.4331C45.3924 13.4331 43.8047 15.0208 43.8047 16.9794C43.8047 18.938 45.3924 20.5257 47.351 20.5257Z" fill="white"></path> <path fill-rule="evenodd" clip-rule="evenodd" d="M47.351 48.4799C48.3879 48.4799 49.2284 47.6393 49.2284 46.6025C49.2284 45.5656 48.3879 44.725 47.351 44.725C46.3141 44.725 45.4735 45.5656 45.4735 46.6025C45.4735 47.6393 46.3141 48.4799 47.351 48.4799ZM47.351 50.1488C49.3096 50.1488 50.8973 48.561 50.8973 46.6025C50.8973 44.6439 49.3096 43.0562 47.351 43.0562C45.3924 43.0562 43.8047 44.6439 43.8047 46.6025C43.8047 48.561 45.3924 50.1488 47.351 50.1488Z" fill="white"></path> <path fill-rule="evenodd" clip-rule="evenodd" d="M59.4526 31.374C60.4894 31.374 61.33 30.5334 61.33 29.4965C61.33 28.4596 60.4894 27.619 59.4526 27.619C58.4157 27.619 57.5751 28.4596 57.5751 29.4965C57.5751 30.5334 58.4157 31.374 59.4526 31.374ZM59.4526 33.0428C61.4111 33.0428 62.9989 31.4551 62.9989 29.4965C62.9989 27.5379 61.4111 25.9502 59.4526 25.9502C57.494 25.9502 55.9062 27.5379 55.9062 29.4965C55.9062 31.4551 57.494 33.0428 59.4526 33.0428Z" fill="white"></path> <path fill-rule="evenodd" clip-rule="evenodd" d="M3.5463 35.9633C4.58319 35.9633 5.42376 35.1227 5.42376 34.0859C5.42376 33.049 4.58319 32.2084 3.5463 32.2084C2.50941 32.2084 1.66885 33.049 1.66885 34.0859C1.66885 35.1227 2.50941 35.9633 3.5463 35.9633ZM3.5463 37.6322C5.50487 37.6322 7.09261 36.0444 7.09261 34.0859C7.09261 32.1273 5.50487 30.5396 3.5463 30.5396C1.58773 30.5396 0 32.1273 0 34.0859C0 36.0444 1.58773 37.6322 3.5463 37.6322Z" fill="white"></path> <path fill-rule="evenodd" clip-rule="evenodd" d="M29.8276 61.83C30.8644 61.83 31.705 60.9894 31.705 59.9526C31.705 58.9157 30.8644 58.0751 29.8276 58.0751C28.7907 58.0751 27.9501 58.9157 27.9501 59.9526C27.9501 60.9894 28.7907 61.83 29.8276 61.83ZM29.8276 63.4989C31.7861 63.4989 33.3739 61.9111 33.3739 59.9526C33.3739 57.994 31.7861 56.4062 29.8276 56.4062C27.869 56.4062 26.2812 57.994 26.2812 59.9526C26.2812 61.9111 27.869 63.4989 29.8276 63.4989Z" fill="white"></path> <path fill-rule="evenodd" clip-rule="evenodd" d="M33.9994 5.92376C35.0363 5.92376 35.8769 5.08319 35.8769 4.0463C35.8769 3.00941 35.0363 2.16885 33.9994 2.16885C32.9625 2.16885 32.122 3.00941 32.122 4.0463C32.122 5.08319 32.9625 5.92376 33.9994 5.92376ZM33.9994 7.59261C35.958 7.59261 37.5457 6.00487 37.5457 4.0463C37.5457 2.08773 35.958 0.5 33.9994 0.5C32.0409 0.5 30.4531 2.08773 30.4531 4.0463C30.4531 6.00487 32.0409 7.59261 33.9994 7.59261Z" fill="white"></path> <path fill-rule="evenodd" clip-rule="evenodd" d="M33.7106 31.8915C33.7107 31.4719 33.3706 31.1318 32.9511 31.1318L23.2053 31.1318C22.7859 31.1318 22.4459 31.4717 22.4458 31.8911C22.4457 32.3106 22.7858 32.6508 23.2053 32.6508L32.9511 32.6507C33.3705 32.6507 33.7105 32.3108 33.7106 31.8915Z" fill="white"></path> <path fill-rule="evenodd" clip-rule="evenodd" d="M36.9229 34.7112C38.6511 34.7112 40.052 33.3103 40.052 31.5821C40.052 29.854 38.6511 28.453 36.9229 28.453C35.1948 28.453 33.7938 29.854 33.7938 31.5821C33.7938 33.3103 35.1948 34.7112 36.9229 34.7112ZM36.9229 36.3801C39.5728 36.3801 41.7209 34.2319 41.7209 31.5821C41.7209 28.9323 39.5728 26.7842 36.9229 26.7842C34.2731 26.7842 32.125 28.9323 32.125 31.5821C32.125 34.2319 34.2731 36.3801 36.9229 36.3801Z" fill="white"></path> <path fill-rule="evenodd" clip-rule="evenodd" d="M36.9243 31.7907C37.0395 31.7907 37.1329 31.6973 37.1329 31.582C37.1329 31.4668 37.0395 31.3734 36.9243 31.3734C36.8091 31.3734 36.7157 31.4668 36.7157 31.582C36.7157 31.6973 36.8091 31.7907 36.9243 31.7907ZM36.9243 33.4595C37.9612 33.4595 38.8018 32.6189 38.8018 31.582C38.8018 30.5452 37.9612 29.7046 36.9243 29.7046C35.8874 29.7046 35.0469 30.5452 35.0469 31.582C35.0469 32.6189 35.8874 33.4595 36.9243 33.4595Z" fill="white"></path> <path d="M22.1094 30.122C22.1094 29.6612 22.483 29.2876 22.9438 29.2876C23.4046 29.2876 23.7782 29.6612 23.7782 30.122V33.8769C23.7782 34.3378 23.4046 34.7114 22.9438 34.7114C22.483 34.7114 22.1094 34.3378 22.1094 33.8769V30.122Z" fill="white"></path> <path d="M27.1172 30.122C27.1172 29.6612 27.4908 29.2876 27.9516 29.2876C28.4125 29.2876 28.786 29.6612 28.786 30.122V33.8769C28.786 34.3378 28.4125 34.7114 27.9516 34.7114C27.4908 34.7114 27.1172 34.3378 27.1172 33.8769V30.122Z" fill="white"></path> <path d="M24.6172 30.122C24.6172 29.6612 24.9908 29.2876 25.4516 29.2876C25.9125 29.2876 26.286 29.6612 26.286 30.122V31.3737C26.286 31.8345 25.9125 32.2081 25.4516 32.2081C24.9908 32.2081 24.6172 31.8345 24.6172 31.3737V30.122Z" fill="white"></path> </svg> 